<?xml version="1.0" encoding="UTF-8"?><svg id="Layer_1" xmlns="http://www.w3.org/2000/svg" viewBox="0 0 877.69 877.69"><defs><style>.cls-1{stroke:#231d45;stroke-miterlimit:10;stroke-width:6.07px;}.cls-1,.cls-2{fill:#231d45;}.cls-2,.cls-3,.cls-4{stroke-width:0px;}.cls-3{fill:#00a19a;}.cls-4{fill:#fff;}</style></defs><circle class="cls-2" cx="438.85" cy="438.85" r="438.85"/><path class="cls-4" d="m573.6,497.11v21.8h-39.28l-.22-20.26c0-34.14-14.14-48.26-38.03-48.26s-38.03,14.12-38.03,48.26v41.36h-39.01v-42.9c0-52.88,28.77-82.14,77.29-82.14s77.29,29.26,77.29,82.14Z"/><path class="cls-4" d="m379.84,415.26c48.52,0,77.29,29.26,77.29,82.14v42.9s-39.01,0-39.01,0v-41.36c0-34.14-13.9-48.26-38.03-48.26-23.89,0-38.03,14.12-38.03,48.26l-.15,20.26h-39.24s-.1-21.8-.1-21.8c0-52.88,28.77-82.14,77.29-82.14Z"/><path class="cls-1" d="m473.24,539.01c0-20.45-15.74-37.02-35.16-37.02s-35.16,16.58-35.16,37.02c0,11.91,5.36,22.47,13.65,29.24l-8.2,53.77h59.43l-8.2-53.77c8.29-6.77,13.65-17.34,13.65-29.24Z"/><path class="cls-4" d="m465.48,537.51c0-15.93-12.27-28.85-27.4-28.85s-27.4,12.92-27.4,28.85c0,9.28,4.17,17.51,10.64,22.78l-6.39,41.89h46.31l-6.39-41.89c6.46-5.28,10.64-13.51,10.64-22.78Z"/><path class="cls-3" d="m689.16,439c-.03-11.46-8.86-20.75-19.76-20.75s-19.76,9.32-19.76,20.81h.04v92.38c0,34.14-14.14,48.26-38.03,48.26s-38.03-14.12-38.03-48.26v-12.54h-39.32v14.08c0,52.88,29.07,82.14,77.59,82.14s77.28-29.26,77.28-82.14v-93.98h-.02Z"/><path class="cls-3" d="m187.37,439c.03-11.46,8.86-20.75,19.76-20.75,10.91,0,19.76,9.32,19.76,20.81h-.04v92.38c0,34.14,14.14,48.26,38.03,48.26,24.14,0,37.79-14.12,37.79-48.26v-12.54s39.25,0,39.25,0v14.08c0,52.88-28.77,82.14-77.29,82.14-48.52,0-77.28-29.26-77.28-82.14v-93.98s.02,0,.02,0Z"/><path class="cls-3" d="m677.57,352.22l-226.28-134.71c-3.1-1.81-6.69-2.82-10.34-2.91h-.57s0,1.48,0,1.48l-.39-1.48h-.54c-3.68.1-7.26,1.11-10.38,2.93l-157.5,93.76v-16.4c0-10.74-9.3-19.48-20.72-19.48s-20.72,8.74-20.72,19.48v41.08l-27.33,16.27c-9.7,5.67-12.68,17.71-6.64,26.83,6.03,9.12,18.84,11.92,28.55,6.24l215.48-128.28,215.49,128.29c3.33,1.95,7.08,2.95,10.91,2.95,1.58,0,3.17-.17,4.74-.51,5.39-1.18,9.97-4.26,12.9-8.68,6.03-9.12,3.05-21.15-6.64-26.82Z"/><rect class="cls-4" x="392.79" y="309.67" width="39.07" height="39.07" rx="4.79" ry="4.79"/><rect class="cls-4" x="443.76" y="309.67" width="39.07" height="39.07" rx="4.79" ry="4.79"/><rect class="cls-4" x="392.79" y="358.62" width="39.07" height="39.07" rx="4.79" ry="4.79"/><rect class="cls-4" x="443.76" y="358.62" width="39.07" height="39.07" rx="4.79" ry="4.79"/></svg>